<svg id="Layer_1" data-name="Layer 1" xmlns="http://www.w3.org/2000/svg" viewBox="0 0 155.42 155.42"><defs><style>.cls-1,.cls-12{fill:#b3dfdf;}.cls-13,.cls-14,.cls-2,.cls-4{fill:none;}.cls-11,.cls-12,.cls-13,.cls-14,.cls-2,.cls-5{stroke:#fff;}.cls-2{stroke-linecap:round;stroke-dasharray:0 2.99 0 2.99 0 2.99;}.cls-11,.cls-12,.cls-13,.cls-14,.cls-2,.cls-3,.cls-4,.cls-5{stroke-miterlimit:10;}.cls-15,.cls-3{fill:#fff;}.cls-3,.cls-4{stroke:#231f20;}.cls-11,.cls-12,.cls-14,.cls-4{stroke-width:0.75px;}.cls-5{fill:#9cc;stroke-dasharray:3;}.cls-6,.cls-7{fill:#d77a98;}.cls-7{font-size:6.32px;font-family:Zapfino;}.cls-8{letter-spacing:-0.03em;}.cls-9{letter-spacing:-0.03em;}.cls-10{letter-spacing:0em;}.cls-11{fill:#b3dfde;}.cls-13{stroke-width:0.5px;}</style></defs><circle class="cls-1" cx="77.71" cy="77.71" r="77.21"/><circle class="cls-2" cx="77.71" cy="77.71" r="77.21"/><path class="cls-3" d="M-10.38,48.69" transform="translate(-23.29 -31.12)"/><path class="cls-4" d="M236.5,70.79" transform="translate(-23.29 -31.12)"/><path class="cls-4" d="M243.63,78.49" transform="translate(-23.29 -31.12)"/><path class="cls-4" d="M212.84,51.41" transform="translate(-23.29 -31.12)"/><path class="cls-5" d="M143.44,23.1" transform="translate(-23.29 -31.12)"/><path class="cls-6" d="M50.46,132.93v-.14c.8-.12,1-.22.85-.65s-.56-1.39-1-2.39H47.38c-.32.77-.6,1.38-.81,2-.33.81-.11.9,1,1.08v.14h-3v-.14c.82-.12,1.07-.21,1.61-1.34l3-6.46.21,0c.9,2.18,1.85,4.37,2.83,6.6.45,1.05.62,1.05,1.54,1.22v.14Zm-1.57-6.59c-.47,1-.91,2.07-1.36,3.06h2.65Z" transform="translate(-23.29 -31.12)"/><path class="cls-6" d="M58.45,128.65c1.43.19,2.6.79,2.6,2a2.07,2.07,0,0,1-1.34,1.83,5.54,5.54,0,0,1-2.39.46H54v-.14c1.18-.17,1.27-.26,1.27-1.22v-5.13c0-.91-.15-1-1.27-1.16v-.15h3.59a3.89,3.89,0,0,1,2.08.45,1.53,1.53,0,0,1,.78,1.28C60.47,128,59.31,128.46,58.45,128.65Zm-1.31-.07c1.69,0,2.17-.57,2.17-1.55,0-.79-.46-1.64-2-1.64a2.65,2.65,0,0,0-.72.06c-.26.06-.31.19-.31.66v2.47Zm-.82,3c0,.9.37,1.1,1.36,1.1,1.27,0,2.19-.59,2.19-1.89s-.85-2-2.67-2h-.88Z" transform="translate(-23.29 -31.12)"/><path class="cls-6" d="M66.48,128.65c1.43.19,2.59.79,2.59,2a2.07,2.07,0,0,1-1.34,1.83,5.54,5.54,0,0,1-2.39.46H62v-.14c1.18-.17,1.27-.26,1.27-1.22v-5.13c0-.91-.14-1-1.27-1.16v-.15h3.59a3.93,3.93,0,0,1,2.09.45,1.55,1.55,0,0,1,.77,1.28C68.49,128,67.34,128.46,66.48,128.65Zm-1.32-.07c1.7,0,2.18-.57,2.18-1.55,0-.79-.47-1.64-2-1.64a2.7,2.7,0,0,0-.72.06c-.26.06-.3.19-.3.66v2.47Zm-.81,3c0,.9.36,1.1,1.35,1.1,1.27,0,2.19-.59,2.19-1.89s-.84-2-2.67-2h-.87Z" transform="translate(-23.29 -31.12)"/><path class="cls-6" d="M77.71,125.28c-1,.12-1.1.33-1.47.86-.75,1.07-1.33,2-2.13,3.25a.74.74,0,0,0-.12.42l0,1.79c0,.93.11,1,1.35,1.19v.14H71.64v-.14c1.21-.16,1.28-.27,1.28-1.19v-1.73a.86.86,0,0,0-.17-.51c-.18-.33-1.4-2.28-1.9-3s-.7-1-1.57-1.06v-.15h3.19v.15c-1,.11-1,.27-.76.6l2.1,3.32c.46-.72,1.51-2.4,1.9-3.11.31-.52.26-.67-.85-.81v-.15h2.85Z" transform="translate(-23.29 -31.12)"/><path class="cls-6" d="M88.78,131.12a10.68,10.68,0,0,1-.77,1.71,12,12,0,0,1-2.43.28c-3.58,0-5.25-2-5.25-4.05,0-2.51,2.21-4.09,5.5-4.09a17.43,17.43,0,0,1,2.53.25c.07.55.13,1.21.21,1.7l-.23,0c-.26-.73-.48-1.26-1.3-1.51a5.81,5.81,0,0,0-1.64-.21,3.48,3.48,0,0,0-3.81,3.6,3.72,3.72,0,0,0,4,4,3,3,0,0,0,2.91-1.77Z" transform="translate(-23.29 -31.12)"/><path class="cls-6" d="M95.33,132.93v-.14c.8-.12,1-.22.84-.65s-.55-1.39-1-2.39H92.25c-.32.77-.6,1.38-.82,2-.32.81-.1.9,1,1.08v.14h-3v-.14c.82-.12,1.07-.21,1.61-1.34L94,125l.2,0c.91,2.18,1.86,4.37,2.83,6.6.46,1.05.63,1.05,1.55,1.22v.14Zm-1.58-6.59c-.46,1-.9,2.07-1.35,3.06h2.65Z" transform="translate(-23.29 -31.12)"/><path class="cls-6" d="M105.6,126.82a4.21,4.21,0,0,0-.28-.7c-.25-.48-.47-.67-1.34-.67h-1.82v6.16c0,.9.1,1,1.38,1.18v.14H99.78v-.14c1.28-.17,1.34-.29,1.34-1.18v-6.16H99.27c-.82,0-1,.21-1.16.52a4.47,4.47,0,0,0-.37.85H97.5c.1-.64.18-1.29.22-1.89h.15c.17.18.26.2.78.2h6.18c.42,0,.55,0,.68-.2h.18a17,17,0,0,0,.13,1.86Z" transform="translate(-23.29 -31.12)"/><path class="cls-6" d="M113.69,131.23c-.07.39-.33,1.34-.45,1.7h-6.62v-.14c1.28-.15,1.37-.23,1.37-1.22v-5c0-1,0-1.1-1.18-1.28v-.15h4.13c1.25,0,1.69,0,2,0a16.29,16.29,0,0,0,.11,1.63l-.21,0a3.92,3.92,0,0,0-.45-.94c-.28-.34-.45-.36-1.31-.36h-1.59c-.4,0-.42,0-.42.37v2.78h1.8c1,0,1.13-.15,1.3-1h.19v2.26h-.19c-.25-.84-.35-1-1.27-1H109v2.84c0,.8.39.83,1.21.83h1.44a1.26,1.26,0,0,0,1.27-.57,4.5,4.5,0,0,0,.55-.86Z" transform="translate(-23.29 -31.12)"/><path class="cls-6" d="M121.57,128.65c1.43.19,2.6.79,2.6,2a2.08,2.08,0,0,1-1.35,1.83,5.52,5.52,0,0,1-2.39.46h-3.29v-.14c1.18-.17,1.26-.26,1.26-1.22v-5.13c0-.91-.14-1-1.26-1.16v-.15h3.58a3.91,3.91,0,0,1,2.09.45,1.52,1.52,0,0,1,.77,1.28C123.58,128,122.43,128.46,121.57,128.65Zm-1.31-.07c1.69,0,2.17-.57,2.17-1.55,0-.79-.47-1.64-2-1.64a2.61,2.61,0,0,0-.71.06c-.27.06-.31.19-.31.66v2.47Zm-.82,3c0,.9.36,1.1,1.36,1.1,1.27,0,2.19-.59,2.19-1.89s-.85-2-2.67-2h-.88Z" transform="translate(-23.29 -31.12)"/><path class="cls-6" d="M130.67,132.93v-.14c.8-.12,1-.22.85-.65s-.56-1.39-1-2.39h-2.94c-.32.77-.59,1.38-.81,2-.32.81-.1.9,1,1.08v.14h-3v-.14c.81-.12,1.06-.21,1.6-1.34l3-6.46.21,0c.9,2.18,1.85,4.37,2.83,6.6.45,1.05.62,1.05,1.54,1.22v.14Zm-1.57-6.59c-.47,1-.91,2.07-1.36,3.06h2.66Z" transform="translate(-23.29 -31.12)"/><path class="cls-6" d="M134.23,125.13h3.59v.15c-1.21.18-1.28.25-1.28,1.36v2.19a3.11,3.11,0,0,0,.84-.49c.79-.6,2.09-1.71,2.74-2.3s.38-.61-.23-.71l-.35,0v-.15h3.17v.15a3.45,3.45,0,0,0-2.29,1l-2.85,2.28c1.17,1.09,2.89,2.68,3.59,3.25a2.88,2.88,0,0,0,2,1v.14H141c-1.32-1.18-2.72-2.48-3.88-3.56a1.83,1.83,0,0,0-.54-.4v2.4c0,1.21.11,1.21,1.28,1.42v.14h-3.59v-.14c1.18-.16,1.27-.21,1.27-1.42v-4.7c0-1.18-.09-1.25-1.27-1.39Z" transform="translate(-23.29 -31.12)"/><path class="cls-6" d="M150.39,131.23c-.07.39-.33,1.34-.45,1.7h-6.62v-.14c1.28-.15,1.37-.23,1.37-1.22v-5c0-1,0-1.1-1.18-1.28v-.15h4.13c1.25,0,1.69,0,2,0,0,.42,0,1.28.1,1.63l-.21,0a3.92,3.92,0,0,0-.45-.94c-.28-.34-.45-.36-1.31-.36h-1.59c-.4,0-.42,0-.42.37v2.78h1.8c1,0,1.13-.15,1.3-1H149v2.26h-.19c-.25-.84-.35-1-1.27-1h-1.83v2.84c0,.8.39.83,1.21.83h1.44a1.26,1.26,0,0,0,1.27-.57,4.5,4.5,0,0,0,.55-.86Z" transform="translate(-23.29 -31.12)"/><path class="cls-6" d="M156.34,126.74a1.86,1.86,0,0,0-2-1.52,1.4,1.4,0,0,0-1.59,1.38c0,.92.62,1.29,1.76,1.84s2.39,1.14,2.39,2.44-1.28,2.23-3,2.23a7,7,0,0,1-2.07-.35c-.09-.32-.3-1.38-.33-1.61l.2,0a2.43,2.43,0,0,0,2.41,1.74,1.58,1.58,0,0,0,1.76-1.61c0-.92-.76-1.43-1.78-1.94s-2.29-1.13-2.29-2.34,1.13-2,2.77-2a9,9,0,0,1,1.77.19c.06.42.13,1,.23,1.54Z" transform="translate(-23.29 -31.12)"/><text class="cls-7" transform="translate(46.39 116.49) scale(0.78 1)">Handc<tspan class="cls-8" x="25.33" y="0">r</tspan><tspan x="28.25" y="0">afted </tspan><tspan class="cls-9" x="50" y="0">D</tspan><tspan class="cls-10" x="58.89" y="0">esserts</tspan></text><path class="cls-11" d="M120.89,94.4c0,2.94-8.31,5.35-18.78,5.5H101c-11,0-19.89-2.47-19.89-5.51S90,88.88,101,88.88,120.89,91.35,120.89,94.4Z" transform="translate(-23.29 -31.12)"/><ellipse class="cls-11" cx="77.71" cy="57.77" rx="18.71" ry="6.9"/><ellipse class="cls-12" cx="76.66" cy="52.66" rx="15.71" ry="6.62"/><line class="cls-13" x1="96.2" y1="65.18" x2="87.78" y2="85.22"/><line class="cls-13" x1="59.01" y1="65.18" x2="66.63" y2="85.88"/><line class="cls-13" x1="92.67" y1="66.91" x2="85.7" y2="85.88"/><line class="cls-13" x1="61.66" y1="66.91" x2="68.56" y2="85.88"/><line class="cls-13" x1="65.41" y1="67.61" x2="71.1" y2="87.1"/><line class="cls-13" x1="88.43" y1="67.98" x2="83.22" y2="86.49"/><line class="cls-13" x1="69.54" y1="68.31" x2="72.84" y2="86.95"/><line class="cls-13" x1="84.86" y1="68.8" x2="81.07" y2="86.52"/><line class="cls-13" x1="73.29" y1="68.8" x2="75.62" y2="86.95"/><line class="cls-13" x1="81.07" y1="68.63" x2="79.5" y2="86.95"/><path class="cls-13" d="M101,100.17v17.89" transform="translate(-23.29 -31.12)"/><path class="cls-14" d="M93.65,72a5.2,5.2,0,0,1-3.32-3,25,25,0,0,0,3.55.37l.1-2.66a8,8,0,0,0,1,1.93,15.18,15.18,0,0,1,.65-2.76l1.06,1.76a8.64,8.64,0,0,1,1.56-3.68,10.49,10.49,0,0,1-.45,6.41" transform="translate(-23.29 -31.12)"/><path class="cls-11" d="M100.64,83.84a10.87,10.87,0,0,0,4.19,1,2.83,2.83,0,0,0,1.2-.21,1.21,1.21,0,0,0,.61-1c.92-4.79,3-16.35-10.69-13.7C80.84,72.94,92.83,80.65,100.64,83.84Z" transform="translate(-23.29 -31.12)"/><path class="cls-15" d="M97.38,74.06c1.34,0,.27-2.18-.75-2.18-1.34,0-.27,2.18.75,2.18Z" transform="translate(-23.29 -31.12)"/><path class="cls-15" d="M93.07,75.28c1.34,0,.27-2.19-.75-2.19-1.34,0-.27,2.19.75,2.19Z" transform="translate(-23.29 -31.12)"/><path class="cls-15" d="M101.89,73.08c1.34,0,.27-2.19-.75-2.19-1.34,0-.27,2.19.75,2.19Z" transform="translate(-23.29 -31.12)"/><path class="cls-15" d="M96.91,79.53c1.34,0,.27-2.19-.75-2.19-1.34,0-.27,2.19.75,2.19Z" transform="translate(-23.29 -31.12)"/><path class="cls-15" d="M100.34,78.25c1.34,0,.27-2.19-.75-2.19-1.34,0-.27,2.19.75,2.19Z" transform="translate(-23.29 -31.12)"/><path class="cls-15" d="M104,76.69c1.34,0,.27-2.18-.75-2.18-1.34,0-.27,2.18.75,2.18Z" transform="translate(-23.29 -31.12)"/><path class="cls-15" d="M104.81,81.15c1.34,0,.27-2.19-.75-2.19-1.34,0-.27,2.19.75,2.19Z" transform="translate(-23.29 -31.12)"/><path class="cls-15" d="M101.29,83.08c1.34,0,.27-2.19-.75-2.19-1.34,0-.27,2.19.75,2.19Z" transform="translate(-23.29 -31.12)"/><path class="cls-14" d="M111.18,116.31c0,1.06-4.84,1.91-10.79,1.91s-10.79-.85-10.79-1.91" transform="translate(-23.29 -31.12)"/></svg>